<?xml version="1.0" standalone="no"?>
<!DOCTYPE svg PUBLIC "-//W3C//DTD SVG 20010904//EN"
 "http://www.w3.org/TR/2001/REC-SVG-20010904/DTD/svg10.dtd">
<svg version="1.0" xmlns="http://www.w3.org/2000/svg"
 width="512.000000pt" height="512.000000pt" viewBox="0 0 512.000000 512.000000"
 preserveAspectRatio="xMidYMid meet">
<metadata>
Created by potrace 1.11, written by Peter Selinger 2001-2013
</metadata>
<g transform="translate(0.000000,512.000000) scale(0.100000,-0.100000)"
fill="#000000" stroke="none">
<path d="M0 2560 l0 -2560 2560 0 2560 0 0 2560 0 2560 -2560 0 -2560 0 0
-2560z m3370 1782 c157 -28 147 -25 310 -78 111 -36 250 -100 250 -115 0 -23
-170 -357 -185 -363 -8 -3 -36 5 -62 18 -41 21 -112 48 -223 86 -14 5 -54 16
-90 25 -36 9 -81 20 -100 25 -135 34 -517 37 -650 5 -296 -71 -503 -202 -675
-425 -105 -136 -203 -342 -229 -481 -9 -46 -20 -104 -25 -129 -6 -25 -15 -108
-21 -185 -6 -77 -15 -167 -18 -200 l-7 -60 -221 -3 -221 -2 -7 140 c-7 142 1
238 30 370 8 36 14 72 14 80 0 8 11 44 24 80 13 36 28 83 34 105 29 113 99
267 181 397 98 157 247 323 376 418 77 57 272 164 355 195 41 15 84 31 95 35
11 4 45 14 75 23 51 14 85 22 200 46 62 12 709 7 790 -7z m-2001 -2286 c-13
-14 -11 -38 3 -30 6 4 8 3 5 -4 -4 -5 -15 -9 -25 -7 -9 2 -20 4 -24 4 -5 1 -7
4 -7 9 3 20 -3 23 -18 11 -10 -7 -15 -10 -11 -5 4 5 2 18 -4 29 -10 20 -9 19
25 -2 l35 -21 -2 29 c-2 29 -1 29 15 13 10 -10 13 -21 8 -26z m264 31 c4 3 7
1 7 -5 0 -17 -16 -15 -31 6 -12 15 -12 16 2 5 9 -7 19 -10 22 -6z m-302 -14
c13 -16 12 -17 -3 -4 -10 7 -18 15 -18 17 0 8 8 3 21 -13z m149 13 c0 -3 -4
-8 -10 -11 -5 -3 -10 -1 -10 4 0 6 5 11 10 11 6 0 10 -2 10 -4z m58 -19 c7 3
12 -3 11 -14 0 -10 -3 -13 -6 -5 -2 6 -9 10 -13 7 -5 -3 -14 5 -20 17 -9 19
-9 21 2 7 7 -9 19 -14 26 -12z m152 8 c7 -9 19 -14 27 -11 22 9 14 -8 -10 -19
-31 -15 -69 4 -56 28 12 21 23 22 39 2z m-282 -20 c-3 -3 -9 2 -12 12 -6 14
-5 15 5 6 7 -7 10 -15 7 -18z m47 -16 c-4 -5 -12 -9 -18 -8 -9 0 -8 2 1 6 6 2
9 10 6 15 -4 7 -2 8 5 4 6 -4 9 -12 6 -17z m47 -17 c-7 -2 -10 -8 -7 -12 3 -5
0 -12 -6 -16 -9 -5 -10 0 -7 14 4 12 2 22 -3 22 -6 0 -4 6 3 14 11 12 14 12
22 -2 6 -10 5 -17 -2 -20z m119 29 c-7 -5 -10 -14 -7 -20 4 -6 11 -9 15 -7 4
3 8 -1 8 -9 0 -8 -4 -12 -9 -9 -5 3 -20 -1 -33 -10 -17 -11 -26 -12 -31 -5 -4
8 -9 7 -15 -2 -6 -11 -11 -11 -21 -1 -9 9 -9 12 5 12 9 0 17 5 17 10 0 6 5 10
11 10 5 0 8 -4 4 -9 -3 -5 -1 -12 5 -16 5 -3 10 1 10 9 0 19 30 56 45 56 5 0
4 -4 -4 -9z m136 -15 c0 -8 -6 -12 -15 -9 -11 5 -11 7 0 14 7 5 13 9 14 9 0 0
1 -6 1 -14z m-447 -44 c0 -11 3 -13 11 -5 12 12 49 6 49 -8 0 -4 11 -6 23 -3
16 2 31 -4 48 -23 13 -14 18 -23 11 -19 -7 4 -19 2 -27 -4 -8 -7 -15 -9 -15
-4 0 10 -29 -28 -30 -38 0 -5 5 -8 10 -8 6 0 10 7 10 16 0 8 4 13 9 9 5 -3 13
0 16 5 4 7 20 9 38 5 22 -4 28 -3 18 3 -8 6 -11 17 -8 26 4 9 2 16 -3 16 -6 0
-10 7 -10 16 0 14 1 14 16 0 8 -9 13 -20 9 -25 -3 -6 4 -15 15 -21 11 -6 20
-8 20 -4 0 3 6 1 14 -5 21 -17 28 9 8 32 -14 16 -13 17 9 17 17 0 20 -3 10 -9
-9 -6 -10 -11 -3 -15 6 -4 8 -14 5 -24 -6 -15 -5 -15 10 -3 15 12 17 12 12 0
-3 -8 -15 -20 -26 -27 -12 -8 -18 -9 -14 -3 9 16 -37 32 -50 18 -13 -15 -49
-22 -40 -8 3 6 -1 11 -10 11 -14 0 -14 -3 2 -27 22 -37 28 -42 20 -20 -4 9 -2
17 3 17 6 0 10 -6 10 -14 0 -9 7 -13 18 -11 14 2 18 -4 19 -32 0 -20 -2 -31
-6 -25 -3 5 -17 12 -31 13 -31 5 -41 -28 -14 -48 10 -7 13 -13 8 -13 -6 0 -15
5 -21 11 -6 6 -17 11 -24 12 -8 2 -25 13 -38 26 -18 18 -20 23 -7 18 14 -5 17
-3 12 8 -3 8 -2 15 3 15 5 0 12 -12 16 -27 l8 -28 13 30 c11 26 10 32 -3 45
-12 11 -17 12 -20 3 -3 -7 -11 -13 -18 -13 -7 0 -16 -6 -19 -12 -4 -7 -4 -3
-2 9 2 13 0 25 -4 28 -5 3 -11 -5 -13 -17 -3 -17 -5 -14 -6 10 0 20 -5 31 -11
27 -6 -4 -7 -12 -4 -18 5 -9 4 -9 -6 0 -11 10 -10 16 3 36 11 17 14 33 8 53
-7 27 -8 27 -13 7 -3 -12 -1 -24 6 -26 7 -3 5 -11 -6 -22 -16 -17 -17 -17 -11
5 5 20 3 22 -13 17 -17 -6 -17 -5 -3 5 12 11 13 17 4 35 -7 13 -15 20 -20 15
-5 -4 -5 -1 -1 6 9 16 26 6 26 -16z m94 14 c-21 -15 -30 -14 -19 3 3 6 14 11
23 11 13 0 13 -2 -4 -14z m357 -3 c6 -6 19 -9 28 -6 13 4 13 3 2 -5 -7 -5 -10
-16 -6 -23 4 -8 -3 -3 -14 11 l-21 25 9 -27 c10 -26 9 -27 -14 -18 -35 13 -31
4 5 -15 31 -16 33 -28 15 -85 -4 -14 -2 -20 9 -20 8 0 20 -10 27 -21 8 -15 8
-19 0 -15 -6 4 -11 2 -11 -3 0 -6 8 -11 18 -11 16 -1 16 -1 -1 -11 -9 -6 -15
-14 -13 -18 3 -4 -9 -8 -27 -7 -23 1 -31 5 -29 16 2 8 0 11 -5 7 -4 -5 -8 -13
-8 -18 0 -8 -12 -13 -17 -6 -1 1 6 15 14 31 15 28 16 29 26 9 6 -11 9 -23 6
-26 -3 -3 3 -3 15 0 21 5 31 25 10 20 -6 -1 -14 5 -16 13 -4 12 -3 12 5 2 7
-11 10 -9 14 6 4 14 0 22 -13 25 -10 3 -20 2 -24 -1 -10 -10 -35 -11 -29 -1 3
5 9 7 14 4 5 -3 11 -1 15 5 3 5 2 10 -3 10 -5 0 -9 11 -9 24 0 18 4 23 21 20
13 -3 15 -2 6 2 -8 4 -18 12 -22 18 -6 8 -8 8 -8 0 0 -6 -7 -11 -15 -11 -11 0
-12 4 -5 11 20 20 11 35 -17 30 l-27 -5 19 23 c16 17 16 20 3 9 -10 -7 -18
-10 -18 -5 0 10 -20 -17 -20 -28 0 -3 11 -5 25 -3 14 1 28 -2 31 -6 3 -5 -2
-9 -11 -9 -9 0 -14 -4 -11 -9 7 -11 -18 -33 -27 -24 -6 6 -11 -11 -8 -29 1 -8
-15 -12 -38 -8 -8 1 -18 -4 -22 -12 -7 -10 -9 -10 -9 3 0 9 12 22 28 29 35 18
62 41 62 53 0 5 -8 3 -17 -4 -10 -7 -15 -10 -11 -5 4 5 3 18 -3 29 -8 14 -8
18 0 13 7 -5 11 3 11 23 0 16 6 31 13 34 22 8 87 1 98 -10z m-121 -23 c0 -5
-4 -10 -9 -10 -6 0 -13 5 -16 10 -3 6 1 10 9 10 9 0 16 -4 16 -10z m-18 -35
c14 -19 8 -24 -17 -13 -13 6 -22 15 -19 19 6 11 27 7 36 -6z m-102 -55 c0 -5
-5 -10 -11 -10 -5 0 -7 5 -4 10 3 6 8 10 11 10 2 0 4 -4 4 -10z m75 -10 c3 -5
2 -10 -4 -10 -5 0 -13 5 -16 10 -3 6 -2 10 4 10 5 0 13 -4 16 -10z m119 -20
c-6 -6 -10 -3 -10 10 0 13 4 16 10 10 7 -7 7 -13 0 -20z m-31 -8 c-3 -13 -12
-21 -21 -20 -9 2 -17 -3 -17 -11 0 -7 -10 -20 -22 -28 -17 -11 -21 -12 -19 -1
1 7 5 18 9 25 4 6 1 14 -5 17 -7 3 -4 4 7 1 13 -3 30 4 45 19 29 27 31 27 23
-2z m142 -30 c-8 -8 -25 17 -25 38 0 9 6 6 16 -8 9 -13 13 -26 9 -30z m-471 6
c7 -5 4 -8 -6 -8 -12 0 -18 7 -17 23 0 15 2 17 6 7 3 -8 11 -18 17 -22z m-34
12 c0 -5 -5 -10 -11 -10 -5 0 -7 5 -4 10 3 6 8 10 11 10 2 0 4 -4 4 -10z m370
-45 c-7 -8 -17 -15 -22 -15 -6 0 -5 7 2 15 7 8 17 15 22 15 6 0 5 -7 -2 -15z
m-334 -23 c-17 -16 -18 -16 -5 5 7 12 15 20 18 17 3 -2 -3 -12 -13 -22z m138
10 c3 -5 -1 -9 -9 -9 -8 0 -12 4 -9 9 3 4 7 8 9 8 2 0 6 -4 9 -8z m-113 -25
c-10 -9 -11 -8 -5 6 3 10 9 15 12 12 3 -3 0 -11 -7 -18z m463 5 c2 -4 -4 -8
-15 -8 -10 0 -19 4 -19 8 0 4 6 8 14 8 8 0 17 -4 20 -8z m-431 -36 c-3 -5 -1
-6 5 -2 7 4 12 2 12 -5 0 -10 3 -10 11 -2 13 13 3 36 -12 28 -5 -4 -9 -1 -9 4
0 19 19 12 36 -13 10 -17 21 -23 32 -19 15 6 15 5 2 -11 -8 -10 -16 -14 -18
-8 -1 5 -23 8 -48 6 -32 -3 -43 0 -38 8 5 8 1 9 -11 4 -15 -5 -16 -4 -5 9 7 8
16 12 21 9 5 -3 9 -2 8 3 -3 20 2 27 10 13 6 -8 7 -18 4 -24z m165 9 c-3 -3
-9 2 -12 12 -6 14 -5 15 5 6 7 -7 10 -15 7 -18z m55 -5 c-7 -27 -13 -25 -11 4
1 14 5 23 9 20 4 -2 5 -13 2 -24z m-118 10 c3 -6 -1 -7 -9 -4 -18 7 -21 14 -7
14 6 0 13 -4 16 -10z m361 -25 c-3 -13 0 -26 5 -29 5 -2 4 -3 -3 -2 -7 1 -13
16 -13 33 0 18 3 29 7 27 5 -3 6 -16 4 -29z m-90 18 c-10 -11 -36 -12 -36 -2
0 5 10 9 22 9 12 0 18 -3 14 -7z m29 -3 c3 -5 1 -10 -4 -10 -6 0 -11 5 -11 10
0 6 2 10 4 10 3 0 8 -4 11 -10z m34 -22 c-11 -20 0 -37 24 -38 5 0 5 -5 2 -10
-4 -6 -12 -4 -21 5 -20 19 -35 19 -28 0 4 -8 1 -15 -6 -15 -6 0 -9 4 -5 9 3 5
0 13 -7 17 -8 5 -6 10 8 16 14 6 10 7 -13 4 -18 -3 -34 -2 -37 3 -3 4 9 8 27
9 18 0 36 7 42 16 14 22 27 8 14 -16z m-114 12 c3 -6 -1 -7 -9 -4 -11 4 -16 0
-17 -12 0 -11 -3 -14 -6 -6 -2 6 -9 10 -14 6 -5 -3 -9 -1 -9 5 0 18 45 27 55
11z m-150 -21 c4 -11 4 -23 1 -26 -3 -4 -6 2 -6 13 0 15 -8 11 -37 -20 -34
-36 -35 -40 -17 -47 18 -7 18 -8 -1 -8 -17 -1 -17 -3 -5 -11 11 -7 12 -10 2
-10 -8 0 -16 9 -19 20 -3 11 -9 20 -14 20 -11 0 -11 -3 2 -37 10 -28 10 -28
-8 -7 -10 11 -25 34 -35 51 -14 27 -14 32 -2 37 9 3 12 1 9 -4 -3 -6 -2 -10 4
-10 5 0 12 6 15 13 3 6 3 1 0 -13 -4 -14 -3 -22 1 -18 5 4 15 2 23 -5 13 -10
15 -9 9 6 -4 10 -3 16 2 13 8 -6 23 17 25 39 1 6 10 9 20 7 11 -2 15 1 11 7
-3 6 -2 11 4 11 5 0 13 -9 16 -21z m75 6 c-7 -8 -17 -15 -23 -15 -6 0 -2 7 9
15 25 19 30 19 14 0z m77 -20 c0 -8 -9 -15 -19 -15 -10 0 -18 -3 -18 -7 0 -5
-3 -19 -6 -33 -4 -19 -3 -22 5 -10 8 12 10 11 8 -7 0 -12 -6 -19 -12 -16 -5 4
-7 3 -3 -2 9 -9 -9 -35 -25 -35 -6 0 -7 3 -4 6 3 4 1 16 -5 28 -10 18 -9 19 3
9 12 -10 15 -8 16 10 1 12 -4 32 -12 44 -11 16 -12 24 -3 29 7 4 8 3 4 -5 -6
-8 0 -10 21 -7 15 3 29 10 31 16 5 15 19 12 19 -5z m-309 -9 c-7 -8 -16 -12
-21 -9 -11 7 2 23 19 23 12 0 12 -2 2 -14z m162 -22 c0 -8 -19 -13 -24 -6 -3
5 1 9 9 9 8 0 15 -2 15 -3z m70 -9 c10 -12 10 -15 -2 -15 -8 0 -15 7 -15 15 0
8 1 15 2 15 2 0 8 -7 15 -15z m76 6 c11 9 14 8 14 -4 0 -18 -33 -16 -36 2 -2
7 0 7 3 1 3 -8 9 -7 19 1z m172 -25 c-10 -7 -14 -17 -10 -21 4 -5 2 -5 -5 -1
-7 4 -10 13 -7 21 4 8 10 12 15 9 5 -3 9 0 9 7 0 7 3 9 7 5 5 -4 0 -13 -9 -20z
m-464 -2 c3 -8 2 -12 -4 -9 -6 3 -10 10 -10 16 0 14 7 11 14 -7z m118 -18 c-1
-14 2 -26 8 -26 5 0 10 -4 10 -10 0 -5 -7 -7 -16 -3 -11 4 -14 14 -10 34 3 15
1 30 -5 33 -5 2 -4 3 3 2 8 -2 12 -14 10 -30z m48 -45 c-5 -10 -6 -22 -2 -26
4 -5 1 -5 -5 -1 -7 4 -13 3 -13 -3 0 -5 8 -12 18 -14 16 -4 16 -5 -1 -6 -10 0
-20 6 -23 14 -8 20 -21 19 -27 -2 -4 -17 -5 -17 -6 -1 0 10 8 22 20 29 14 7
19 17 16 30 -4 16 -2 17 14 8 15 -8 17 -14 9 -28z m157 19 c2 -17 -1 -19 -19
-9 -17 9 -24 8 -33 -5 -7 -8 -15 -13 -19 -9 -7 7 42 43 59 43 6 0 11 -9 12
-20z m53 15 c0 -3 -8 -14 -18 -25 -18 -19 -18 -19 -19 1 -1 11 2 17 8 14 5 -4
9 -1 9 4 0 6 5 11 10 11 6 0 10 -2 10 -5z m54 -14 c-5 -3 -12 -10 -15 -14 -4
-4 -9 -1 -13 8 -3 9 -2 13 4 10 6 -3 10 -1 10 5 0 6 5 8 11 4 6 -3 7 -9 3 -13z
m-417 -13 c-3 -8 -6 -5 -6 6 -1 11 2 17 5 13 3 -3 4 -12 1 -19z m193 -3 c0 -8
-4 -15 -10 -15 -5 0 -7 7 -4 15 4 8 8 15 10 15 2 0 4 -7 4 -15z m-114 -51 c-5
-14 -9 -15 -19 -4 -9 10 -9 13 1 17 6 3 10 9 7 13 -10 16 -34 -1 -28 -18 4 -9
3 -14 -2 -10 -4 4 -14 3 -22 -3 -24 -21 -13 3 13 28 24 22 28 23 42 10 8 -9
12 -23 8 -33z m201 39 c-4 -3 -1 -13 6 -22 10 -14 10 -14 -4 -4 -9 7 -20 9
-25 5 -4 -4 -2 1 5 11 7 9 16 17 19 17 3 0 2 -3 -1 -7z m203 -13 c0 -14 -5
-18 -17 -13 -12 5 -13 8 -4 11 11 4 11 6 0 13 -11 7 -10 9 4 9 10 0 17 -8 17
-20z m-162 -26 c-4 -3 -12 5 -18 18 -12 22 -12 22 6 6 10 -10 15 -20 12 -24z
m58 12 c-11 -18 -12 -26 -4 -28 7 -3 4 -8 -7 -12 -11 -4 -16 -4 -12 0 4 4 0
18 -9 32 -9 13 -11 21 -5 18 6 -4 19 -2 28 3 26 15 27 14 9 -13z m-187 1 c8
-10 7 -14 -4 -14 -8 0 -12 4 -9 8 2 4 -2 10 -8 12 -8 4 -9 6 -2 6 6 1 17 -5
23 -12z m224 -11 c6 -16 -1 -26 -17 -26 -6 0 -4 5 4 10 10 6 11 10 3 10 -7 0
-13 5 -13 10 0 15 17 12 23 -4z m-155 -10 c-20 -15 -14 -28 10 -19 11 5 13 3
7 -7 -6 -10 -4 -12 11 -7 18 7 18 7 0 -8 -11 -8 -25 -15 -32 -15 -7 0 -15 -6
-18 -12 -4 -9 -5 -8 -5 2 2 34 -2 50 -12 50 -6 0 -9 -8 -7 -18 3 -11 0 -19 -7
-19 -8 0 -11 7 -7 15 4 11 1 13 -8 7 -9 -6 -11 -4 -5 5 6 10 4 12 -9 7 -10 -4
-15 -3 -11 4 4 5 14 7 23 5 10 -3 28 1 42 8 32 18 50 19 28 2z m198 -13 c-4
-4 -12 -1 -19 7 -9 10 -9 11 1 6 7 -4 12 -2 13 6 0 11 2 11 6 0 3 -7 2 -16 -1
-19z m34 2 c-7 -9 -15 -13 -19 -10 -3 3 1 10 9 15 21 14 24 12 10 -5z m-58
-23 c3 -11 0 -19 -7 -19 -7 0 -10 8 -7 19 2 10 6 18 7 18 1 0 5 -8 7 -18z
m-33 -9 c-6 -7 -15 -10 -20 -7 -5 3 -9 -4 -9 -15 0 -11 -11 -28 -25 -37 -21
-14 -23 -19 -13 -38 11 -20 10 -20 -7 -6 -17 13 -18 13 -13 -1 4 -9 1 -16 -6
-16 -7 0 -13 6 -13 14 0 7 5 13 10 13 5 0 7 7 3 15 -3 8 -2 14 2 13 14 -4 52
27 52 42 0 20 16 37 35 37 11 0 12 -4 4 -14z m-229 1 c0 -8 -19 -13 -24 -6 -3
5 1 9 9 9 8 0 15 -2 15 -3z m317 -1 c-4 -3 -1 -13 6 -22 11 -14 10 -14 -5 -2
-16 12 -22 9 -19 -11 0 -5 -3 -8 -9 -8 -5 0 -10 3 -10 7 0 8 31 43 38 43 3 0
2 -3 -1 -7z m37 -19 c3 -8 2 -12 -4 -9 -6 3 -10 10 -10 16 0 14 7 11 14 -7z
m-412 -42 c-7 -2 -10 -8 -6 -13 3 -5 1 -9 -4 -9 -11 0 -25 30 -17 38 3 3 5 0
5 -7 0 -7 5 -9 11 -5 8 4 8 9 0 17 -6 6 -11 16 -11 21 0 6 8 0 17 -14 12 -17
13 -25 5 -28z m203 38 c3 -6 -1 -7 -9 -4 -18 7 -21 14 -7 14 6 0 13 -4 16 -10z
m-125 -4 c0 -2 -7 -6 -15 -10 -8 -3 -15 -1 -15 4 0 6 7 10 15 10 8 0 15 -2 15
-4z m245 -9 c3 -4 2 -5 -2 -2 -3 3 -13 -1 -21 -8 -11 -8 -14 -8 -9 0 4 6 1 14
-5 17 -7 2 -3 4 9 2 12 -1 25 -5 28 -9z m-257 -37 c3 -7 0 -10 -6 -6 -6 3 -13
2 -17 -4 -3 -5 2 -10 11 -10 16 0 16 -1 -2 -15 -25 -19 -44 -19 -44 1 0 14 2
15 16 3 15 -12 16 -11 10 9 -5 14 -3 22 4 22 6 0 8 5 4 11 -4 7 -1 10 6 7 8
-2 16 -10 18 -18z m333 -3 c-10 -9 -11 -8 -5 6 3 10 9 15 12 12 3 -3 0 -11 -7
-18z m-128 -32 c-7 -21 -12 -19 -10 4 0 11 5 18 9 15 4 -3 5 -11 1 -19z m93 7
c-10 -2 -22 0 -28 6 -6 6 0 7 19 4 21 -5 23 -7 9 -10z m98 6 c-3 -4 -12 -8
-20 -8 -8 0 -14 4 -14 8 0 4 9 8 19 8 11 0 17 -4 15 -8z m77 -5 c10 -11 10
-14 2 -9 -9 5 -13 1 -13 -13 0 -11 -6 -23 -12 -27 -7 -4 -10 -4 -6 1 4 4 0 14
-10 22 -16 12 -16 13 1 7 15 -6 22 4 18 29 -2 12 6 8 20 -10z m-214 -16 c-2
-6 -9 -12 -15 -13 -7 -1 -8 0 -2 3 8 3 7 9 -1 19 -10 12 -9 13 5 8 9 -4 15
-11 13 -17z m-240 -19 c-3 -8 -6 -5 -6 6 -1 11 2 17 5 13 3 -3 4 -12 1 -19z
m73 18 c0 -2 -7 -7 -16 -10 -8 -3 -12 -2 -9 4 6 10 25 14 25 6z m194 -5 c3 -5
-1 -11 -9 -14 -9 -4 -12 -1 -8 9 6 16 10 17 17 5z m-109 -11 c3 -6 -1 -7 -9
-4 -18 7 -21 14 -7 14 6 0 13 -4 16 -10z m247 -8 c9 -9 9 -12 0 -12 -7 0 -12
5 -12 11 0 8 -4 8 -14 0 -10 -9 -15 -8 -19 2 -6 17 28 16 45 -1z m-301 -20
c-6 -2 -9 -7 -7 -11 3 -4 -1 -8 -9 -8 -8 0 -12 4 -9 9 3 4 -1 8 -8 8 -10 0 -9
3 2 9 8 6 18 7 22 5 4 -3 8 1 9 8 0 9 2 9 6 -1 3 -8 1 -17 -6 -19z m230 5
c-10 -9 -11 -8 -5 6 3 10 9 15 12 12 3 -3 0 -11 -7 -18z m-161 -7 c-12 -22
-21 -26 -17 -7 2 10 17 26 25 27 1 0 -2 -9 -8 -20z m-145 -11 c-4 -5 -12 -9
-18 -8 -9 0 -8 2 1 6 6 2 9 10 6 15 -4 7 -2 8 5 4 6 -4 9 -12 6 -17z m179 13
c3 -5 -1 -9 -9 -9 -8 0 -12 4 -9 9 3 4 7 8 9 8 2 0 6 -4 9 -8z m261 -12 c3 -6
-1 -7 -9 -4 -18 7 -21 14 -7 14 6 0 13 -4 16 -10z m-316 -45 c-1 -17 -2 -17
-6 -2 -2 9 -8 17 -13 17 -5 0 -7 7 -3 16 5 13 7 13 14 2 5 -7 8 -22 8 -33z
m281 9 c0 -2 -7 -4 -15 -4 -8 0 -15 4 -15 10 0 5 7 7 15 4 8 -4 15 -8 15 -10z
m-120 -4 c0 -5 -8 -10 -17 -10 -15 0 -16 2 -3 10 19 12 20 12 20 0z m44 -9 c4
-5 -1 -8 -9 -7 -21 3 -31 16 -12 16 9 0 18 -4 21 -9z m110 -16 c-7 -18 -20
-19 -30 -3 -4 6 -3 8 4 4 6 -3 13 -2 17 4 9 15 15 12 9 -5z m-354 -5 c0 -5 -5
-10 -11 -10 -5 0 -7 5 -4 10 3 6 8 10 11 10 2 0 4 -4 4 -10z m308 -25 c-3 -3
-9 2 -12 12 -6 14 -5 15 5 6 7 -7 10 -15 7 -18z m-328 -27 c0 -17 -23 -3 -26
16 -2 14 0 15 12 5 8 -6 14 -16 14 -21z m165 12 c3 -5 1 -10 -4 -10 -6 0 -11
5 -11 10 0 6 2 10 4 10 3 0 8 -4 11 -10z m232 -12 c-3 -8 -6 -5 -6 6 -1 11 2
17 5 13 3 -3 4 -12 1 -19z m34 -1 c-10 -9 -11 -8 -5 6 3 10 9 15 12 12 3 -3 0
-11 -7 -18z m1626 8 c0 -8 -4 -12 -9 -9 -5 3 -6 10 -3 15 9 13 12 11 12 -6z
m-1767 -9 c0 -3 -4 -8 -10 -11 -5 -3 -10 -1 -10 4 0 6 5 11 10 11 6 0 10 -2
10 -4z m-210 -10 c0 -2 -8 -10 -17 -17 -16 -13 -17 -12 -4 4 13 16 21 21 21
13z m380 -12 c0 -8 -19 -13 -24 -6 -3 5 1 9 9 9 8 0 15 -2 15 -3z m-190 -26
c0 -6 -6 -5 -15 2 -8 7 -15 14 -15 16 0 2 7 1 15 -2 8 -4 15 -11 15 -16z
m1785 -7 c3 -5 2 -12 -3 -15 -5 -3 -9 1 -9 9 0 17 3 19 12 6z m-1865 -35 c0
-3 -4 -8 -10 -11 -5 -3 -10 -1 -10 4 0 6 5 11 10 11 6 0 10 -2 10 -4z m67 -18
c-3 -8 -6 -5 -6 6 -1 11 2 17 5 13 3 -3 4 -12 1 -19z m78 13 c3 -5 2 -12 -3
-15 -5 -3 -9 1 -9 9 0 17 3 19 12 6z m-178 -8 c-4 -3 -1 -13 6 -22 10 -14 10
-14 -4 -4 -9 7 -20 9 -25 5 -4 -4 -2 1 5 11 7 9 16 17 19 17 3 0 2 -3 -1 -7z
m48 -22 c3 -5 2 -12 -3 -15 -5 -3 -9 1 -9 9 0 17 3 19 12 6z m85 -45 c0 -2 -7
-7 -16 -10 -8 -3 -12 -2 -9 4 6 10 25 14 25 6z m797 -11 c0 -8 -4 -12 -9 -9
-5 3 -6 10 -3 15 9 13 12 11 12 -6z m933 -1 c0 -8 -19 -13 -24 -6 -3 5 1 9 9
9 8 0 15 -2 15 -3z m-1740 -40 c0 -8 -8 -14 -17 -13 -11 0 -13 3 -5 6 6 2 12
9 12 14 0 6 -5 7 -12 3 -7 -4 -8 -3 -4 5 9 14 26 5 26 -15z m-42 -29 c-3 -3
-9 2 -12 12 -6 14 -5 15 5 6 7 -7 10 -15 7 -18z m76 -41 c3 -8 2 -12 -4 -9 -6
3 -10 10 -10 16 0 14 7 11 14 -7z m876 -78 c0 -2 -7 -7 -16 -10 -8 -3 -12 -2
-9 4 6 10 25 14 25 6z"/>
<path d="M1660 2072 c0 -5 7 -9 15 -9 8 0 12 4 9 9 -3 4 -9 8 -15 8 -5 0 -9
-4 -9 -8z"/>
<path d="M1398 1959 c-24 -13 -23 -25 2 -25 13 0 20 7 20 18 0 21 0 21 -22 7z"/>
<path d="M1473 1839 c-31 -11 -29 -15 7 -15 17 0 30 3 30 7 0 14 -15 17 -37 8z"/>
<path d="M1710 2000 c-13 -8 -12 -10 3 -10 9 0 17 5 17 10 0 12 -1 12 -20 0z"/>
<path d="M1660 1990 c0 -5 7 -7 15 -4 8 4 15 8 15 10 0 2 -7 4 -15 4 -8 0 -15
-4 -15 -10z"/>
<path d="M1755 1920 c-3 -5 -1 -10 4 -10 6 0 11 5 11 10 0 6 -2 10 -4 10 -3 0
-8 -4 -11 -10z"/>
<path d="M1620 1810 c-9 -6 -10 -10 -3 -10 6 0 15 5 18 10 8 12 4 12 -15 0z"/>
<path d="M1700 1470 c0 -6 7 -10 15 -10 8 0 15 2 15 4 0 2 -7 6 -15 10 -8 3
-15 1 -15 -4z"/>
</g>
</svg>
