<?xml version="1.0" standalone="no"?>
<!DOCTYPE svg PUBLIC "-//W3C//DTD SVG 20010904//EN"
 "http://www.w3.org/TR/2001/REC-SVG-20010904/DTD/svg10.dtd">
<svg version="1.0" xmlns="http://www.w3.org/2000/svg"
 width="512.000000pt" height="512.000000pt" viewBox="0 0 512.000000 512.000000"
 preserveAspectRatio="xMidYMid meet">
<metadata>
Created by potrace 1.11, written by Peter Selinger 2001-2013
</metadata>
<g transform="translate(0.000000,512.000000) scale(0.100000,-0.100000)"
fill="#000000" stroke="none">
<path d="M0 2560 l0 -2560 2560 0 2560 0 0 2560 0 2560 -2560 0 -2560 0 0
-2560z m3047 1019 c17 -17 103 -18 103 -1 0 43 461 -53 645 -133 169 -74 235
-110 230 -123 -3 -10 0 -12 10 -8 17 6 59 -15 144 -74 84 -57 211 -169 211
-185 0 -8 6 -15 14 -15 13 0 145 -165 146 -182 0 -5 -4 -8 -10 -8 -5 0 -10 5
-10 10 0 22 -19 8 -24 -17 -15 -67 -16 -105 -4 -100 7 2 12 18 12 35 -3 48 24
28 28 -21 2 -24 9 -42 17 -45 11 -4 13 2 8 27 -6 30 -6 30 16 18 29 -16 35
-25 48 -71 8 -28 8 -46 0 -63 -10 -22 -9 -24 8 -18 15 4 20 -1 25 -29 7 -37
-1 -86 -14 -86 -15 0 -31 28 -20 35 5 3 10 20 10 36 0 18 -4 28 -10 24 -5 -3
-10 -19 -10 -35 0 -16 -4 -31 -9 -34 -11 -7 -22 45 -14 73 4 17 1 21 -17 21
-19 0 -22 4 -18 30 3 17 1 30 -4 30 -4 0 -8 -11 -8 -25 0 -14 -4 -25 -9 -25
-12 0 -21 63 -10 74 5 6 4 15 -3 23 -10 12 -14 10 -24 -9 -11 -18 -13 -19 -14
-5 0 20 -30 24 -30 3 0 -8 4 -16 10 -18 6 -2 7 -20 2 -48 -7 -39 -9 -42 -16
-22 -5 14 -3 28 4 37 7 8 7 15 1 19 -25 16 -39 66 -29 102 7 25 6 40 -1 47
-15 15 -14 37 3 37 9 0 15 14 18 40 4 41 -14 52 -20 12 -2 -11 -10 -26 -18
-32 -11 -10 -14 -9 -14 6 0 11 4 26 9 34 13 19 5 29 -19 23 -21 -5 -28 -33 -9
-33 5 0 7 -5 3 -11 -3 -6 -9 -7 -13 -3 -3 5 -15 10 -25 12 -18 3 -18 2 -2 -13
14 -15 23 -45 12 -45 -2 0 -23 18 -45 39 -37 36 -39 39 -19 44 17 5 19 11 14
33 -4 14 -20 39 -35 55 -21 20 -27 35 -24 53 4 19 1 26 -11 26 -34 0 -3 -93
34 -103 24 -6 25 -20 4 -41 -19 -20 -38 -21 -31 -2 3 8 -6 27 -20 42 -14 16
-21 30 -15 32 12 4 -4 51 -22 63 -5 4 -6 19 -2 34 6 24 5 26 -7 13 -8 -8 -17
-23 -20 -34 -2 -10 -5 -2 -6 20 -1 29 -4 37 -16 32 -10 -3 -17 3 -21 19 -7 29
-19 32 -33 8 -10 -17 -11 -16 -12 2 -1 11 -5 4 -9 -15 -7 -32 -8 -33 -15 -12
-8 23 -21 29 -27 12 -2 -7 -14 -7 -36 1 -25 8 -31 16 -27 29 3 11 0 20 -10 24
-8 3 -15 12 -15 21 0 8 -4 15 -8 15 -5 0 -6 -15 -4 -32 l5 -33 -22 27 c-11 14
-21 40 -21 57 0 21 -5 31 -15 31 -10 0 -15 -11 -15 -35 0 -45 -16 -45 -24 0
-6 31 -9 34 -26 25 -11 -6 -17 -16 -14 -25 5 -11 2 -13 -10 -9 -9 3 -16 12
-16 20 0 10 -12 14 -40 14 -22 0 -48 4 -58 9 -9 5 -35 14 -57 20 -22 6 -50 13
-63 16 l-22 6 2 -155 c2 -86 6 -156 11 -156 4 0 7 -11 7 -24 0 -14 4 -35 9
-48 5 -14 12 -51 16 -83 7 -56 7 -58 -9 -42 -13 12 -17 30 -15 64 4 52 -13 68
-36 37 -19 -25 -18 -34 0 -34 17 0 20 -25 5 -35 -6 -4 -4 -12 5 -21 20 -21 20
-48 -1 -40 -8 3 -31 -1 -51 -9 -27 -12 -39 -13 -47 -4 -8 8 -8 13 0 16 6 2 19
10 29 17 24 17 13 66 -14 66 -21 0 -30 16 -23 43 5 19 38 23 44 5 8 -24 28 5
28 40 0 56 -17 74 -25 29 -11 -58 -21 -43 -19 29 1 55 -2 69 -19 85 -13 12
-16 19 -8 19 10 0 12 9 8 30 -4 17 -3 30 2 30 17 0 30 -27 39 -85 l10 -60 1
62 c0 34 -3 65 -9 68 -15 10 -12 35 5 35 12 0 15 -15 16 -67 l1 -68 10 50 c11
58 4 95 -18 95 -12 0 -15 7 -12 25 3 14 1 25 -3 25 -5 0 -9 -11 -9 -25 0 -16
-6 -25 -15 -25 -18 0 -19 11 -2 29 7 8 7 11 1 8 -7 -4 -11 3 -11 19 0 31 -11
43 -23 24 -10 -16 -8 -59 4 -78 9 -15 -5 -15 -24 1 -20 15 -22 110 -3 102 7
-2 22 -1 33 3 17 6 13 10 -25 21 -25 7 -45 19 -45 27 0 20 -17 17 -29 -3 -9
-15 -12 -16 -20 -3 -20 29 -400 9 -586 -31 -49 -10 -92 -19 -96 -19 -11 0 -17
84 -6 98 9 11 7 13 -9 12 -3 -1 -14 9 -24 22 -16 19 -19 20 -20 6 0 -9 5 -20
10 -23 11 -7 4 -25 -9 -25 -18 0 -20 55 -3 68 21 16 32 15 32 -3 0 -11 11 -15
36 -15 34 0 36 2 31 26 -3 16 0 28 10 31 18 7 31 -6 16 -15 -8 -5 -9 -12 -2
-22 8 -13 10 -13 18 -1 11 17 49 22 57 9 7 -12 33 23 28 37 -3 6 16 10 48 10
29 0 59 4 66 9 6 5 12 5 12 1 0 -4 6 -2 14 4 10 8 16 9 21 1 10 -15 55 -12 61
5 7 18 35 20 51 4z m-1607 -21 c0 -5 7 -8 15 -8 8 0 15 5 15 10 0 6 7 10 15
10 8 0 15 -4 15 -10 0 -5 9 -10 20 -10 11 0 20 4 20 8 0 4 61 6 137 5 112 -2
140 -6 155 -20 16 -14 24 -15 52 -5 36 13 115 3 140 -17 8 -7 25 -9 39 -6 14
4 28 2 31 -4 4 -6 25 -11 46 -11 48 0 170 -43 187 -66 6 -9 16 -13 22 -10 11
7 43 -10 103 -56 l37 -29 -2 27 c-2 31 28 57 42 35 6 -9 11 -10 15 -2 11 16
46 13 46 -4 0 -18 -16 -20 -23 -2 -3 6 -6 2 -6 -9 -1 -12 -8 -25 -17 -28 -11
-4 -14 -13 -10 -31 4 -14 2 -25 -3 -25 -5 0 -2 -18 6 -39 22 -57 14 -70 -39
-65 -60 7 -268 55 -268 63 0 3 -12 7 -26 7 -14 1 -34 10 -44 19 -10 9 -23 14
-28 11 -12 -7 -124 22 -132 34 -3 5 -12 8 -20 7 -8 -1 -54 4 -101 12 -59 9
-158 11 -310 9 -203 -4 -229 -6 -280 -26 -89 -35 -91 -41 -100 -205 -10 -187
5 -344 37 -405 13 -25 24 -51 24 -58 0 -8 11 -14 26 -14 20 0 24 -4 19 -19 -5
-16 -2 -18 15 -14 11 3 20 12 20 19 0 8 10 14 26 14 14 0 23 -4 19 -10 -7 -11
65 -14 103 -4 16 5 20 10 13 18 -7 9 1 12 30 13 40 2 48 -4 27 -25 -9 -9 -8
-12 5 -12 10 0 20 7 23 15 4 8 12 15 19 15 7 0 15 6 18 13 3 9 10 7 25 -7 20
-17 22 -17 28 -2 3 9 12 16 20 16 17 0 18 -12 2 -28 -9 -9 -9 -12 3 -12 8 0
20 5 25 10 7 7 19 8 37 1 19 -8 36 -6 61 4 43 18 47 18 40 1 -3 -8 3 -16 15
-19 12 -3 19 -1 15 4 -8 13 45 11 89 -4 21 -8 45 -24 54 -37 16 -22 15 -24
-15 -51 -68 -60 -280 -104 -570 -116 l-153 -6 5 -51 c3 -28 8 -94 12 -146 3
-52 14 -140 25 -195 11 -55 20 -107 20 -115 0 -8 4 -28 9 -45 5 -16 11 -67 14
-112 l6 -83 -53 0 c-30 0 -74 3 -99 6 -41 6 -45 9 -57 48 -8 22 -16 77 -19
121 -2 44 -9 88 -13 97 -6 11 -5 25 3 37 10 16 10 30 0 67 -9 33 -10 50 -2 58
15 15 12 46 -6 53 -13 5 -14 16 -9 64 5 39 3 59 -3 59 -10 0 -28 79 -25 105 1
6 -13 21 -30 35 -30 24 -37 25 -178 25 -130 0 -149 2 -168 19 -31 28 -28 56 7
56 23 1 25 2 12 13 -21 16 -14 47 11 47 10 0 19 -4 19 -10 0 -5 7 -10 16 -10
11 0 14 -6 9 -20 -5 -16 -2 -20 16 -20 18 0 19 2 9 15 -9 10 -9 15 -1 15 6 0
11 7 11 15 0 17 21 20 36 6 5 -5 24 -12 43 -16 27 -6 33 -4 29 7 -8 18 36 60
55 53 15 -6 31 26 27 54 -1 7 3 10 9 6 15 -8 14 69 0 115 -14 44 -21 332 -9
385 11 47 4 85 -16 85 -7 0 -18 9 -24 21 -23 41 -65 49 -242 43 -107 -4 -173
-11 -192 -20 -42 -20 -61 -17 -75 12 -15 33 -7 60 20 67 12 3 18 10 15 16 -9
14 62 43 99 39 17 -1 37 2 45 7 8 5 27 10 43 11 15 1 52 14 83 29 48 23 72 28
148 30 50 2 91 4 91 5 0 9 53 6 64 -4 12 -9 14 -8 8 6 -5 14 2 18 39 24 25 3
60 4 78 1 18 -3 48 -2 67 3 42 9 169 8 169 -2z m1067 -118 c-11 -18 -12 -19
-18 -2 -3 9 -1 20 4 24 19 12 27 -2 14 -22z m833 -86 c0 -8 -4 -12 -10 -9 -5
3 -10 10 -10 16 0 5 5 9 10 9 6 0 10 -7 10 -16z m-750 -9 c0 -8 -7 -15 -15
-15 -8 0 -15 7 -15 15 0 8 7 15 15 15 8 0 15 -7 15 -15z m751 -66 l-10 -24 0
26 c-1 14 2 29 6 33 12 12 14 -9 4 -35z m30 -64 c5 4 9 -8 9 -24 0 -17 -4 -31
-10 -31 -5 0 -10 6 -10 14 0 7 -6 19 -14 26 -8 6 -12 18 -9 27 5 13 7 13 15
-1 5 -9 13 -14 19 -11z m749 -85 c0 -5 -7 -10 -15 -10 -8 0 -15 5 -15 10 0 6
7 10 15 10 8 0 15 -4 15 -10z m10 -45 c0 -14 -4 -25 -10 -25 -11 0 -14 33 -3
43 11 11 13 8 13 -18z m50 -25 c0 -11 -4 -20 -10 -20 -5 0 -10 9 -10 20 0 11
5 20 10 20 6 0 10 -9 10 -20z m-760 -26 c0 -8 -5 -12 -10 -9 -6 4 -8 11 -5 16
9 14 15 11 15 -7z m-43 -26 c-3 -8 -6 -5 -6 6 -1 11 2 17 5 13 3 -3 4 -12 1
-19z m1005 -199 c-3 -26 -7 -37 -12 -29 -5 7 -6 19 -4 27 11 37 14 43 16 43 2
0 2 -19 0 -41z m187 10 c10 -11 21 -29 24 -39 4 -16 -1 -15 -29 8 -33 26 -45
52 -24 52 5 0 18 -9 29 -21z m-979 -80 c10 -51 2 -79 -21 -79 -10 0 -9 69 1
75 10 6 0 55 -11 55 -5 0 -9 -8 -9 -17 0 -16 -1 -16 -17 0 -17 17 -17 19 1 32
26 20 44 0 56 -66z m-94 14 c-7 -17 -8 -17 -17 0 -12 21 -2 44 13 29 6 -6 8
-19 4 -29z m17 -39 c4 -8 15 -14 22 -14 19 0 19 -15 0 -34 -26 -26 -17 -35 30
-30 42 5 60 -6 35 -21 -14 -9 -13 -46 1 -42 16 3 34 -64 20 -72 -7 -5 -6 -16
3 -33 8 -14 19 -63 25 -109 12 -87 13 -145 4 -119 -3 8 -12 19 -19 23 -8 4
-14 16 -15 25 0 12 -3 11 -9 -5 -5 -13 -13 -23 -18 -23 -15 0 -36 94 -23 98 6
2 11 12 11 23 0 10 5 19 10 19 6 0 10 -6 10 -14 0 -8 5 -18 12 -22 8 -5 9 0 4
17 -4 13 -11 38 -15 54 -5 22 -12 29 -27 27 -26 -5 -35 -22 -28 -56 10 -46
-39 -66 -50 -20 -5 18 -1 30 13 42 17 14 19 25 14 60 -3 23 -10 42 -14 42 -5
0 -9 -5 -9 -10 0 -6 -8 -10 -17 -8 -13 2 -19 -6 -24 -32 -8 -47 -12 -29 -9 51
1 39 -3 70 -9 73 -18 11 -13 25 8 23 23 -1 35 -35 19 -54 -8 -10 -8 -17 0 -25
9 -9 12 -8 12 3 0 11 2 11 9 1 6 -10 10 -10 20 2 10 12 10 20 0 38 -7 13 -12
35 -11 49 2 27 -20 45 -39 33 -5 -3 -9 1 -9 8 0 7 -3 22 -6 34 -5 19 -2 20 28
16 18 -3 37 -11 41 -18z m-1733 -44 c0 -5 -4 -10 -10 -10 -5 0 -10 5 -10 10 0
6 5 10 10 10 6 0 10 -4 10 -10z m-330 -20 c0 -5 -4 -10 -10 -10 -5 0 -10 5
-10 10 0 6 5 10 10 10 6 0 10 -4 10 -10z m3045 -65 l-15 -40 5 40 c4 22 9 49
13 60 l6 20 3 -20 c2 -11 -3 -38 -12 -60z m75 -33 c0 -9 -49 -32 -68 -32 -12
0 -12 3 -2 15 7 9 19 14 26 11 7 -3 15 2 18 10 6 14 26 11 26 -4z m29 -97 c0
-16 -3 -24 -6 -17 -8 21 -43 14 -43 -9 0 -12 -4 -17 -11 -14 -6 4 -7 20 -3 38
8 40 13 45 23 28 7 -10 11 -8 16 9 9 30 25 7 24 -35z m-99 -2 c-11 -17 -11
-17 -6 0 3 10 6 24 7 30 0 9 2 9 5 0 3 -7 0 -20 -6 -30z m178 -42 c-2 -48 -5
-58 -15 -49 -9 7 -13 7 -13 0 0 -6 7 -15 16 -20 25 -14 13 -47 -19 -50 -19 -2
-29 -11 -33 -28 -3 -13 -14 -24 -23 -24 -9 0 -24 -11 -34 -24 -12 -16 -25 -22
-38 -19 -10 3 -19 1 -19 -5 0 -5 9 -12 21 -15 12 -3 18 -10 14 -17 -4 -6 -16
-8 -28 -4 -30 9 -30 9 -17 33 9 17 8 22 -5 27 -22 9 -19 24 5 24 11 0 23 7 27
16 3 8 12 13 19 10 10 -4 14 3 15 22 1 15 2 32 4 37 1 6 3 22 3 38 2 28 22 39
22 12 0 -8 9 -15 19 -15 11 0 22 -6 24 -12 3 -7 4 15 1 50 -2 40 0 61 6 57 6
-3 10 -22 10 -41 0 -19 5 -34 11 -34 8 0 10 15 7 45 -4 34 -2 45 8 45 11 0 14
-14 12 -59z m-1178 39 c0 -5 -4 -10 -10 -10 -5 0 -10 5 -10 10 0 6 5 10 10 10
6 0 10 -4 10 -10z m84 -21 c-3 -5 -10 -7 -15 -3 -5 3 -7 10 -3 15 3 5 10 7 15
3 5 -3 7 -10 3 -15z m936 -54 c0 -14 -2 -25 -4 -25 -2 0 -6 11 -8 25 -3 14 -1
25 3 25 5 0 9 -11 9 -25z m-1043 -7 c-3 -8 -6 -5 -6 6 -1 11 2 17 5 13 3 -3 4
-12 1 -19z m33 -54 c0 -8 -4 -12 -10 -9 -5 3 -10 10 -10 16 0 5 5 9 10 9 6 0
10 -7 10 -16z m40 0 c0 -8 -5 -12 -10 -9 -6 4 -8 11 -5 16 9 14 15 11 15 -7z
m947 -21 c-3 -10 -5 -4 -5 12 0 17 2 24 5 18 2 -7 2 -21 0 -30z m-943 -32 c10
-11 15 -25 11 -30 -11 -19 -23 -12 -34 19 -11 34 -2 39 23 11z m-48 -28 c19
-20 30 -39 25 -42 -5 -4 -13 -19 -16 -34 -11 -43 -23 -32 -18 17 4 35 1 48
-16 65 -11 11 -21 23 -21 26 0 12 14 3 46 -32z m1159 -10 c-4 -27 -15 -67 -25
-90 -10 -23 -16 -44 -13 -46 2 -3 -5 -24 -17 -47 -19 -38 -23 -41 -37 -28 -13
13 -12 19 6 52 12 20 21 45 21 54 0 10 5 23 12 30 9 9 9 12 0 12 -17 0 -15 40
3 46 8 4 15 15 15 26 0 10 5 16 10 13 6 -3 13 1 16 9 12 31 16 15 9 -31z
m-1035 3 c0 -30 17 -43 23 -19 3 10 5 -30 6 -89 1 -90 -2 -108 -14 -108 -10 0
-15 11 -16 33 0 17 -3 26 -6 20 -2 -7 -9 -13 -14 -13 -12 0 -11 44 1 56 7 7 7
19 1 35 l-10 24 0 -27 c-1 -36 -19 -45 -27 -14 -7 29 1 46 22 46 17 0 18 14 4
41 -12 22 -6 39 16 39 8 0 14 -10 14 -24z m-163 -61 c1 -30 -2 -55 -8 -55 -10
0 -12 69 -3 94 3 9 7 16 8 16 0 0 2 -25 3 -55z m93 -35 c0 -10 -7 -20 -15 -24
-16 -6 -18 -2 -9 31 7 26 24 21 24 -7z m933 -12 c4 -14 11 -19 21 -15 11 5 16
0 16 -12 0 -11 -5 -21 -11 -23 -8 -3 -6 -10 5 -20 9 -9 16 -28 16 -43 0 -22 3
-25 20 -20 30 9 25 -7 -24 -73 -144 -195 -368 -325 -634 -368 -103 -16 -365
-16 -392 1 -8 5 -35 10 -59 12 -46 2 -64 17 -56 43 2 8 -5 26 -16 40 l-20 25
2 -25 c1 -14 1 -34 0 -45 -1 -17 -3 -17 -11 -5 -5 8 -7 29 -4 45 5 29 3 30
-30 32 -20 1 -36 -3 -36 -8 0 -6 -4 -7 -10 -4 -14 9 -12 58 3 74 10 10 8 12
-8 9 -12 -2 -22 -14 -25 -28 -6 -27 -50 -41 -50 -16 0 8 -6 17 -12 20 -10 5
-10 7 0 12 17 8 15 24 -3 24 -8 0 -15 5 -15 10 0 6 11 10 25 10 18 0 25 -5 25
-20 0 -11 5 -20 10 -20 6 0 10 20 10 45 0 52 10 56 68 25 31 -17 37 -18 40 -5
4 17 28 20 37 5 3 -5 17 -10 30 -10 31 0 40 -16 18 -30 -14 -9 -4 -10 46 -6
44 3 88 -2 144 -16 43 -11 92 -18 107 -14 19 3 30 1 33 -8 6 -15 57 -10 57 5
0 5 5 9 11 9 5 0 7 -5 3 -11 -3 -6 0 -15 7 -20 12 -8 12 -11 -1 -19 -13 -8
-13 -10 2 -10 9 0 23 -2 30 -5 18 -7 39 35 32 62 -5 19 -3 19 45 9 55 -11 64
-20 29 -29 -12 -4 -19 -9 -15 -13 3 -3 14 -3 24 1 10 5 22 7 27 6 5 -1 6 16 3
39 -3 22 -1 40 4 40 5 0 9 -7 9 -15 0 -9 7 -18 16 -22 11 -4 14 -13 10 -29 -4
-13 -3 -24 2 -24 14 0 32 23 32 42 0 10 5 18 11 18 7 0 9 -10 7 -25 -3 -14 -2
-25 3 -25 14 0 55 46 51 58 -5 15 16 52 29 52 6 0 8 -9 4 -21 -9 -26 3 -72 16
-64 5 4 7 15 4 24 -3 10 1 24 10 31 12 10 15 10 15 -4 0 -25 13 -19 39 19 13
19 30 35 37 35 8 0 14 11 14 25 0 29 36 50 58 32 22 -17 26 2 9 38 -22 45 -21
51 3 77 11 12 20 27 20 34 0 6 8 14 18 18 9 3 23 9 30 12 17 8 16 -40 -2 -55
-12 -10 -13 -8 -9 10 4 16 2 20 -8 17 -19 -6 -23 -36 -8 -54 10 -13 14 -13 29
1 13 12 20 13 25 5 7 -11 0 -65 -12 -96 -9 -25 12 -15 27 14 12 22 14 41 7
100 -5 39 -13 69 -18 66 -5 -3 -9 0 -9 7 0 7 -3 10 -6 6 -4 -3 -13 0 -20 8 -8
7 -19 15 -26 17 -6 2 -9 11 -6 20 9 22 65 12 71 -14z m81 0 c14 -23 -2 -37
-18 -15 -7 9 -21 17 -30 17 -9 0 -16 4 -16 9 0 16 52 7 64 -11z m-989 -49 c3
-57 6 -67 25 -72 12 -3 20 -14 20 -26 0 -12 3 -20 8 -20 18 3 20 -3 10 -32 -6
-18 -15 -28 -24 -25 -7 3 -15 -3 -17 -12 -4 -13 -5 -11 -6 5 -1 15 -9 23 -31
28 -17 4 -30 13 -30 21 0 11 6 13 19 9 16 -5 18 -2 14 15 -3 11 -14 20 -24 20
-26 0 -24 21 2 27 19 5 21 11 15 50 -4 33 -3 44 6 41 7 -3 13 -15 13 -29z
m-68 6 c8 -8 13 -20 11 -26 -2 -7 -12 0 -21 15 -19 29 -14 35 10 11z m883 -9
c0 -3 -4 -8 -10 -11 -5 -3 -10 -1 -10 4 0 6 5 11 10 11 6 0 10 -2 10 -4z
m-900 -35 c0 -6 -4 -13 -10 -16 -5 -3 -10 1 -10 9 0 9 5 16 10 16 6 0 10 -4
10 -9z m10 -45 c0 -18 -17 -29 -30 -21 -8 5 -7 11 1 21 15 18 29 18 29 0z
m840 -16 c0 -12 -36 -18 -51 -9 -12 8 -12 10 0 18 15 9 51 3 51 -9z m-821 -89
c1 -18 -2 -21 -12 -12 -9 6 -12 23 -9 43 4 28 6 30 13 13 4 -11 8 -31 8 -44z
m821 39 c0 -5 -4 -10 -10 -10 -5 0 -10 5 -10 10 0 6 5 10 10 10 6 0 10 -4 10
-10z m-73 -6 c22 -6 40 -44 20 -44 -32 1 -57 14 -57 31 0 20 4 22 37 13z m-57
-38 c0 -14 7 -31 15 -40 17 -17 20 -36 5 -36 -5 0 -10 5 -10 11 0 15 -26 39
-43 39 -17 0 -56 -58 -58 -86 -1 -11 -5 1 -9 26 -6 38 -4 47 14 62 12 9 28 17
37 18 9 0 19 7 23 15 9 24 26 18 26 -9z m50 -26 c0 -5 -2 -10 -4 -10 -3 0 -8
5 -11 10 -3 6 -1 10 4 10 6 0 11 -4 11 -10z m-1063 -57 c3 -7 -3 -9 -16 -6
-12 3 -21 10 -21 15 0 13 32 6 37 -9z m853 1 c0 -8 -5 -12 -10 -9 -6 4 -8 11
-5 16 9 14 15 11 15 -7z m-740 -170 c0 -19 -16 -18 -24 2 -11 27 -7 37 9 24 8
-7 15 -19 15 -26z"/>
<path d="M3475 3370 c-3 -5 -1 -10 4 -10 6 0 11 5 11 10 0 6 -2 10 -4 10 -3 0
-8 -4 -11 -10z"/>
<path d="M3451 3328 c-1 -19 4 -28 14 -28 8 0 15 5 15 10 0 6 -4 10 -9 10 -5
0 -12 8 -14 18 -3 10 -5 6 -6 -10z"/>
<path d="M3967 3263 c-13 -13 -7 -35 8 -29 11 4 15 -1 15 -19 0 -14 5 -25 10
-25 11 0 13 24 4 58 -6 21 -24 29 -37 15z"/>
<path d="M4270 3073 c0 -11 7 -24 16 -27 26 -10 28 1 5 25 -21 22 -21 22 -21
2z"/>
<path d="M4326 3003 c-3 -3 -6 -17 -6 -31 0 -21 2 -22 15 -12 8 7 15 18 15 26
0 15 -15 26 -24 17z"/>
<path d="M4450 2786 c-13 -35 -13 -36 4 -36 17 0 29 41 16 54 -6 6 -13 -1 -20
-18z"/>
<path d="M4602 2673 c0 -29 4 -53 9 -53 17 0 18 19 5 61 l-14 44 0 -52z"/>
<path d="M1171 1804 c0 -11 3 -14 6 -6 3 7 2 16 -1 19 -3 4 -6 -2 -5 -13z"/>
<path d="M3520 2600 c0 -5 7 -10 16 -10 8 0 12 5 9 10 -3 6 -10 10 -16 10 -5
0 -9 -4 -9 -10z"/>
<path d="M3515 2401 c-6 -11 9 -23 19 -14 9 9 7 23 -3 23 -6 0 -12 -4 -16 -9z"/>
<path d="M4570 2280 c0 -5 5 -10 10 -10 6 0 10 5 10 10 0 6 -4 10 -10 10 -5 0
-10 -4 -10 -10z"/>
<path d="M3626 2135 c4 -8 7 -15 9 -15 2 0 5 7 9 15 3 9 0 15 -9 15 -9 0 -12
-6 -9 -15z"/>
<path d="M4410 1920 c0 -5 5 -10 10 -10 6 0 10 5 10 10 0 6 -4 10 -10 10 -5 0
-10 -4 -10 -10z"/>
<path d="M4415 1881 c-7 -12 -8 -12 23 -15 13 -2 21 2 19 8 -5 15 -34 19 -42
7z"/>
<path d="M4370 1846 c0 -8 5 -18 10 -21 6 -3 10 1 10 9 0 8 -4 18 -10 21 -5 3
-10 -1 -10 -9z"/>
<path d="M3293 1761 c3 -13 1 -33 -4 -43 -14 -26 -6 -32 20 -16 23 14 20 40
-7 68 -14 13 -15 13 -9 -9z"/>
<path d="M3640 1684 c0 -8 5 -12 10 -9 6 4 8 11 5 16 -9 14 -15 11 -15 -7z"/>
</g>
</svg>
